# xmcd CD database file
#
# Track frame offsets:
#	150
#	20456
#	43991
#	66876
#	89196
#	102417
#	138245
#	155304
#	210169
#	238985
#	249102
#
# Disc length: 4692 seconds
#
# Revision: 0
# Processed by: cddbd v1.5.2PL0 Copyright (c) Steve Scherf et al.
# Submitted via: CDex 1.50
#
DISCID=9412520b
DTITLE=Jon and Vangelis - Jon and Vangelis (Lo mas pulento)
DYEAR=2007
DGENRE=New Age
TTITLE0=I'll Find My Way Home
TTITLE1=I Hear You Now
TTITLE2=So Long Ago So clear
TTITLE3=Deborah
TTITLE4=Italian Song
TTITLE5=State of independence
TTITLE6=Anyone Can Light a Candle
TTITLE7=The friends of Mr Cairo
TTITLE8=Garden of Senses
TTITLE9=Thunder
TTITLE10=Horizon
EXTD=YEAR: 2007
EXTT0=
EXTT1=
EXTT2=
EXTT3=
EXTT4=
EXTT5=
EXTT6=
EXTT7=
EXTT8=
EXTT9=
EXTT10=
PLAYORDER=
